<svg xmlns="http://www.w3.org/2000/svg" height="500" width="500"><g stroke-width="7.775" color="#000"><path d="M414.153 233.02L249.56 328.054l1.678 2.91 164.609-95.031-1.678-2.91zM251.669 59.528l-1.692 2.91 164.609 95.032 1.691-2.91-164.609-95.036zM82.64 162.206v190.072h3.37V162.206h-3.37z"/><path d="M414.324 165.143v188.39h3.37v-188.39h-3.37zM249.345 171.06l-164.61 95.03 1.68 2.911 164.608-95.032-1.678-2.91z"/><path d="M157.488 117.767l-1.692 2.91 164.61 95.032 1.691-2.91-164.609-95.036zM421.382 348.343l-164.61 95.035 1.679 2.924 164.609-95.044-1.678-2.91z"/><path d="M187.812 292.57l-1.678 2.91 164.61 95.045 1.677-2.924-164.609-95.036zM85.178 347.102l-1.679 2.91 164.61 95.045 1.678-2.924-164.61-95.036z"/></g><g fill="#ffc107" stroke="#ffc107"><path d="M412.008 159.458L82.8 349.527l1.679 2.91 329.209-190.069-1.679-2.91z" color="#000" stroke-width="3.3676635000000004"/><path d="M401.414 167.515c-3.718-6.44-1.509-14.683 4.93-18.4 6.44-3.719 14.683-1.51 18.4 4.93 3.719 6.439 1.51 14.682-4.93 18.4-6.439 3.718-14.682 1.509-18.4-4.93zM72.204 357.583c-3.717-6.44-1.509-14.683 4.93-18.4 6.44-3.718 14.684-1.51 18.401 4.93 3.718 6.44 1.51 14.683-4.93 18.4-6.44 3.718-14.683 1.51-18.4-4.93z" fill-rule="evenodd" stroke-width="3.5920300199999997"/></g><path d="M250.57 63.25L85.963 158.28l1.678 2.91L252.25 66.16l-1.68-2.91z" color="#000"/><g fill="#3f51b5" stroke="#3f51b5"><path d="M248.49 60.186v380.146h3.37V60.186h-3.37z" color="#000" stroke-width="3.3676635000000004"/><path d="M250.179 73.393c-7.436 0-13.47-6.035-13.47-13.47 0-7.436 6.034-13.47 13.47-13.47 7.435 0 13.47 6.034 13.47 13.47 0 7.435-6.035 13.47-13.47 13.47zM250.179 453.547c-7.436 0-13.47-6.034-13.47-13.47 0-7.435 6.034-13.47 13.47-13.47 7.435 0 13.47 6.035 13.47 13.47 0 7.436-6.035 13.47-13.47 13.47z" fill-rule="evenodd" stroke-width="3.5920300199999997"/></g><g fill="#f44336" stroke="#f44336"><path d="M87.529 162.695l-1.679 2.91L415.06 355.67l1.678-2.91-329.21-190.065z" color="#000" stroke-width="3.3676635000000004"/><path d="M404.465 347.618c3.718-6.44 11.96-8.648 18.4-4.93 6.44 3.717 8.648 11.96 4.93 18.4-3.717 6.44-11.96 8.648-18.4 4.93-6.44-3.718-8.648-11.961-4.93-18.4zM75.256 157.549c3.717-6.44 11.96-8.648 18.4-4.93 6.44 3.717 8.648 11.96 4.93 18.4-3.717 6.44-11.96 8.648-18.4 4.93-6.44-3.716-8.648-11.959-4.93-18.4z" fill-rule="evenodd" stroke-width="3.5920300199999997"/></g></svg>